<svg width="60" height="60" viewBox="0 0 60 60" fill="none" xmlns="http://www.w3.org/2000/svg">
<path d="M31.0526 48C30.0758 47.9994 29.1004 47.9268 28.1345 47.7825C23.9046 47.1203 20.0216 45.0716 17.1079 41.9646C14.1942 38.8576 12.4184 34.8723 12.0652 30.6472C11.7119 26.4222 12.8016 22.2021 15.1597 18.6631C17.5177 15.1242 21.0076 12.4713 25.07 11.1297C25.5048 10.9834 25.9722 10.9604 26.4194 11.0632C26.8667 11.166 27.276 11.3906 27.6011 11.7116C27.9534 12.0521 28.2034 12.4825 28.3234 12.9552C28.4434 13.4279 28.4287 13.9242 28.2809 14.3891C27.723 16.1851 27.4734 18.061 27.5425 19.9388C27.7001 22.884 28.6238 25.7389 30.2239 28.2267C31.824 30.7145 34.0463 32.7508 36.6753 34.1382C39.0433 35.4679 41.7156 36.1758 44.438 36.1944C44.9121 36.2009 45.3753 36.3358 45.7775 36.5843C46.1797 36.8328 46.5056 37.1855 46.7198 37.6042C46.934 38.023 47.0283 38.4918 46.9926 38.9598C46.9569 39.4278 46.7925 39.8772 46.5172 40.2594C44.7365 42.6631 42.4079 44.6169 39.7207 45.962C37.0336 47.307 34.0637 48.0052 31.0526 48ZM25.8649 13.0721C25.8187 13.0726 25.7728 13.0803 25.7289 13.0949C23.1859 13.9303 20.8781 15.3482 18.9932 17.2333C17.1082 19.1184 15.6995 21.4174 14.8815 23.9432C14.0635 26.469 13.8595 29.1503 14.2859 31.7689C14.7123 34.3876 15.7572 36.8696 17.3355 39.013C18.9138 41.1564 20.981 42.9006 23.3688 44.1038C25.7567 45.307 28.3977 45.9352 31.0771 45.9372C33.7564 45.9392 36.3984 45.315 38.7881 44.1153C41.1777 42.9157 43.2476 41.1745 44.8292 39.0335C44.8789 38.9629 44.9077 38.8799 44.9125 38.794C44.9173 38.708 44.8979 38.6225 44.8564 38.5468C44.8186 38.4645 44.7581 38.3944 44.6819 38.3446C44.6056 38.2948 44.5168 38.2673 44.4254 38.2652C41.3541 38.2462 38.3386 37.4507 35.665 35.9542C32.7194 34.3924 30.2313 32.1037 28.4418 29.3102C26.6522 26.5166 25.6219 23.3128 25.4507 20.0092C25.3764 17.9012 25.6592 15.7958 26.2874 13.7803C26.3194 13.6782 26.3229 13.5694 26.2975 13.4655C26.2721 13.3616 26.2187 13.2664 26.1431 13.1901C26.1072 13.1529 26.064 13.1232 26.0162 13.1029C25.9684 13.0826 25.9169 13.0721 25.8649 13.0721Z" fill="#FCFCFC"/>
</svg>
