<svg width="400" height="400" viewBox="0 0 400 400" fill="none" xmlns="http://www.w3.org/2000/svg">
<path d="M92.328 332.188H241.698C247.859 332.037 247.915 322.923 241.698 322.781H92.3281C84.5477 322.781 78.2187 316.452 78.2187 308.672V228.719H94.6796C97.2792 228.719 99.3828 226.615 99.3828 224.016V125.25H132.305C140.085 125.25 146.414 118.921 146.414 111.141V78.2187H259.289C261.884 78.2187 263.992 80.3291 263.992 82.9218V219.312H233.422C231.64 219.312 230.014 220.318 229.215 221.912L216.405 247.531H146.97L134.16 221.912C133.361 220.318 131.735 219.312 129.953 219.312H118.195C115.596 219.312 113.492 221.416 113.492 224.016C113.492 226.615 115.596 228.719 118.195 228.719H127.046L139.855 254.338C140.655 255.932 142.28 256.937 144.062 256.937H219.312C221.095 256.937 222.72 255.932 223.52 254.338L236.329 228.719H285.156C285.156 231.318 287.26 233.422 289.859 233.422C292.459 233.422 294.562 231.318 294.562 228.719V224.016C294.562 221.416 292.459 219.312 289.859 219.312H273.398V82.9219C273.398 75.1415 267.069 68.8125 259.289 68.8125H141.711C140.488 68.81 139.243 69.3261 138.382 70.1944L91.3576 117.218C90.4898 118.08 89.9739 119.324 89.9766 120.547V219.312H73.5156C70.9161 219.312 68.8125 221.416 68.8125 224.016V308.672C68.8125 321.638 79.3623 332.188 92.328 332.188ZM132.305 115.844H106.033L137.008 84.8693V111.141C137.008 113.733 134.9 115.844 132.305 115.844Z" fill="#FCFCFC"/>
<path d="M219.312 306.32C221.912 306.32 224.016 304.217 224.016 301.617V278.102C224.016 275.502 221.912 273.398 219.312 273.398H144.062C141.463 273.398 139.359 275.502 139.359 278.102V301.617C139.359 304.217 141.463 306.32 144.062 306.32H195.797C201.975 306.216 201.984 297.018 195.797 296.914H148.766V282.805H214.609V301.617C214.609 304.217 216.713 306.32 219.312 306.32Z" fill="#FCFCFC"/>
<path d="M120.547 181.688C120.547 184.285 122.65 186.391 125.25 186.391H238.125C240.725 186.391 242.828 184.285 242.828 181.688C242.828 179.09 240.725 176.984 238.125 176.984H125.25C122.65 176.984 120.547 179.09 120.547 181.688Z" fill="#FCFCFC"/>
<path d="M238.125 162.875C244.279 162.78 244.33 153.575 238.125 153.469H148.766C146.166 153.469 144.062 155.575 144.062 158.172C144.062 160.769 146.166 162.875 148.766 162.875H238.125Z" fill="#FCFCFC"/>
<path d="M302.591 277.128C300.754 275.291 297.777 275.291 295.94 277.128L289.859 283.209L283.778 277.128C281.941 275.291 278.965 275.291 277.128 277.128C275.291 278.965 275.291 281.941 277.128 283.778L283.209 289.859L277.128 295.94C275.291 297.777 275.291 300.754 277.128 302.591C278.965 304.428 281.941 304.428 283.778 302.591L289.859 296.51L295.94 302.591C297.777 304.428 300.754 304.428 302.591 302.591C304.428 300.754 304.428 297.777 302.591 295.94L296.51 289.859L302.591 283.778C304.428 281.941 304.428 278.965 302.591 277.128Z" fill="#FCFCFC"/>
<path d="M321.303 268.691C318.988 269.871 318.069 272.7 319.25 275.015C321.56 279.548 322.782 284.683 322.782 289.859C321.129 333.466 258.591 333.469 256.938 289.859C256.938 271.708 271.709 256.938 289.86 256.938C295.036 256.938 300.171 258.159 304.704 260.469C307.019 261.65 309.848 260.727 311.029 258.416C312.209 256.102 311.29 253.272 308.976 252.092C281.871 237.617 246.809 259.007 247.533 289.86C249.854 346.011 329.871 346.001 332.188 289.859C332.107 284.248 329.912 264.917 321.303 268.691Z" fill="#FCFCFC"/>
</svg>
