<svg width="240" height="240" viewBox="0 0 240 240" fill="none" xmlns="http://www.w3.org/2000/svg">
<path fill-rule="evenodd" clip-rule="evenodd" d="M39.3501 199.65C39.3501 196.613 40.5564 193.701 42.7037 191.554C44.851 189.406 47.7634 188.2 50.8001 188.2H188.2C191.237 188.2 194.149 189.406 196.296 191.554C198.444 193.701 199.65 196.613 199.65 199.65C199.65 202.687 198.444 205.599 196.296 207.746C194.149 209.894 191.237 211.1 188.2 211.1H50.8001C47.7634 211.1 44.851 209.894 42.7037 207.746C40.5564 205.599 39.3501 202.687 39.3501 199.65ZM77.0549 111.405C79.2021 109.258 82.114 108.052 85.1501 108.052C88.1862 108.052 91.0981 109.258 93.2452 111.405L108.05 126.21V39.35C108.05 36.3133 109.256 33.4009 111.404 31.2537C113.551 29.1064 116.463 27.9 119.5 27.9C122.537 27.9 125.449 29.1064 127.596 31.2537C129.744 33.4009 130.95 36.3133 130.95 39.35V126.21L145.755 111.405C146.811 110.311 148.075 109.439 149.472 108.839C150.869 108.239 152.371 107.923 153.891 107.91C155.412 107.897 156.919 108.186 158.327 108.762C159.734 109.338 161.012 110.188 162.087 111.263C163.162 112.338 164.012 113.616 164.588 115.024C165.164 116.431 165.454 117.938 165.44 119.459C165.427 120.979 165.111 122.482 164.511 123.879C163.911 125.275 163.039 126.539 161.945 127.595L127.595 161.945C125.448 164.092 122.536 165.298 119.5 165.298C116.464 165.298 113.552 164.092 111.405 161.945L77.0549 127.595C74.9084 125.448 73.7025 122.536 73.7025 119.5C73.7025 116.464 74.9084 113.552 77.0549 111.405Z" fill="black"/>
</svg>
