<svg width="240" height="240" viewBox="0 0 240 240" fill="none" xmlns="http://www.w3.org/2000/svg">
<path fill-rule="evenodd" clip-rule="evenodd" d="M120 182.5C154.517 182.5 182.5 154.517 182.5 120C182.5 85.4822 154.517 57.5 120 57.5C85.4822 57.5 57.5 85.4822 57.5 120C57.5 154.517 85.4822 182.5 120 182.5ZM120 195C161.422 195 195 161.422 195 120C195 78.5787 161.422 45 120 45C78.5787 45 45 78.5787 45 120C45 161.422 78.5787 195 120 195ZM126.25 145V157.5H113.75V145H126.25ZM107.5 106.932C107.5 100.522 112.914 95 120 95C127.086 95 132.5 100.522 132.5 106.932C132.5 109.492 130.959 112.526 127.563 115.966C124.272 119.301 120.087 122.161 116.607 124.41L113.75 126.257V138.75H126.25V133.019C129.427 130.858 133.19 128.059 136.46 124.747C140.682 120.47 145 114.413 145 106.932C145 93.2586 133.624 82.5 120 82.5C106.376 82.5 95 93.2586 95 106.932H107.5Z" fill="#FCFCFC"/>
</svg>
