<svg width="60" height="60" viewBox="0 0 60 60" fill="none" xmlns="http://www.w3.org/2000/svg">
<path d="M35.125 45.5V48.25H24.875V45.5H35.125ZM30 11.75C38.0081 11.75 44.5 18.2419 44.5 26.25C44.5 30.8289 42.3785 34.9121 39.0625 37.5703L38.9531 37.6572L38.9053 37.7891L37.1494 42.625H22.8506L21.0947 37.7891L21.0469 37.6572L20.9375 37.5703L20.6309 37.3164C17.4916 34.6559 15.5 30.6859 15.5 26.25C15.5 18.2419 21.9919 11.75 30 11.75ZM30 14.5C23.5107 14.5 18.25 19.7607 18.25 26.25C18.25 29.959 19.9652 33.2659 22.6582 35.4248L23.3691 35.9941L24.6582 39.5459L24.7773 39.875H35.2227L35.3418 39.5459L36.6299 35.9941L37.3418 35.4248C40.0347 33.2659 41.75 29.959 41.75 26.25C41.75 19.7607 36.4894 14.5 30 14.5Z" fill="#FCFCFC" stroke="black"/>
</svg>
