<svg width="16" height="16" viewBox="0 0 16 16" fill="none" xmlns="http://www.w3.org/2000/svg">
<g clip-path="url(#clip0_17_122)">
<rect width="16" height="16" rx="2" fill="#0A0A0A"/>
<path d="M9.50024 2.99994C10.3412 3.22139 11.1083 3.66207 11.7232 4.27698C12.3381 4.89189 12.7788 5.65899 13.0002 6.49994" stroke="#FCFCFC" stroke-width="0.5" stroke-linecap="round" stroke-linejoin="round"/>
<path d="M9 4.99988C10.0325 5.27613 10.7237 5.96738 11 6.99988" stroke="#FCFCFC" stroke-width="0.5" stroke-linecap="round" stroke-linejoin="round"/>
<path d="M9.77462 9.58361C9.84386 9.53754 9.92351 9.50946 10.0063 9.50193C10.0892 9.4944 10.1726 9.50766 10.249 9.54049L13.1965 10.8611C13.2958 10.9036 13.3787 10.9771 13.4328 11.0706C13.4869 11.1641 13.5092 11.2726 13.4965 11.3799C13.3994 12.1055 13.042 12.7712 12.4909 13.2531C11.9398 13.7351 11.2324 14.0004 10.5002 13.9999C8.2459 13.9999 6.0839 13.1043 4.48984 11.5103C2.89578 9.91621 2.00025 7.7542 2.00025 5.49986C1.99969 4.76774 2.26504 4.06033 2.74697 3.5092C3.2289 2.95806 3.89459 2.60072 4.62024 2.50361C4.72752 2.49087 4.83603 2.51321 4.92954 2.56729C5.02306 2.62137 5.09654 2.70428 5.139 2.80361L6.45962 5.75361C6.49207 5.82938 6.50528 5.912 6.49808 5.99411C6.49089 6.07621 6.4635 6.15527 6.41837 6.22424L5.08275 7.81236C5.03537 7.88385 5.00735 7.96641 5.00144 8.05197C4.99552 8.13753 5.01191 8.22316 5.049 8.30049C5.56587 9.35861 6.65962 10.4392 7.72087 10.9511C7.79861 10.988 7.88463 11.0041 7.97045 10.9976C8.05627 10.9911 8.13892 10.9624 8.21025 10.9142L9.77462 9.58361Z" stroke="#FCFCFC" stroke-width="0.5" stroke-linecap="round" stroke-linejoin="round"/>
</g>
<defs>
<clipPath id="clip0_17_122">
<rect width="16" height="16" rx="2" fill="white"/>
</clipPath>
</defs>
</svg>
