<svg width="117" height="58" viewBox="0 0 117 58" fill="none" xmlns="http://www.w3.org/2000/svg">
<path d="M1.52557 49.3239V48.7273H6.79901V49.3239H4.49432V56H3.83026V49.3239H1.52557ZM8.29403 56V48.7273H12.5128V49.3239H8.9581V52.0618H12.2891V52.6584H8.9581V55.4034H12.5838V56H8.29403ZM19.9276 51H19.2599C19.2102 50.7514 19.1203 50.5218 18.9901 50.3111C18.8622 50.098 18.7012 49.9122 18.5071 49.7536C18.313 49.5949 18.0928 49.4718 17.8466 49.3842C17.6004 49.2966 17.334 49.2528 17.0476 49.2528C16.5883 49.2528 16.1693 49.3724 15.7905 49.6115C15.4141 49.8506 15.1122 50.2022 14.8849 50.6662C14.66 51.1278 14.5476 51.6937 14.5476 52.3636C14.5476 53.0384 14.66 53.6065 14.8849 54.0682C15.1122 54.5298 15.4141 54.8802 15.7905 55.1193C16.1693 55.3561 16.5883 55.4744 17.0476 55.4744C17.334 55.4744 17.6004 55.4306 17.8466 55.343C18.0928 55.2554 18.313 55.1335 18.5071 54.9773C18.7012 54.8187 18.8622 54.6328 18.9901 54.4197C19.1203 54.2067 19.2102 53.9759 19.2599 53.7273H19.9276C19.8684 54.0611 19.7571 54.3724 19.5938 54.6612C19.4328 54.9477 19.2268 55.1986 18.9759 55.4141C18.7273 55.6295 18.4408 55.7976 18.1165 55.9183C17.7921 56.0391 17.4358 56.0994 17.0476 56.0994C16.4368 56.0994 15.8946 55.9467 15.4212 55.6413C14.9477 55.3336 14.576 54.9003 14.3061 54.3416C14.0386 53.7829 13.9048 53.1236 13.9048 52.3636C13.9048 51.6037 14.0386 50.9444 14.3061 50.3857C14.576 49.8269 14.9477 49.3949 15.4212 49.0895C15.8946 48.7817 16.4368 48.6278 17.0476 48.6278C17.4358 48.6278 17.7921 48.6882 18.1165 48.8089C18.4408 48.9273 18.7273 49.0954 18.9759 49.3132C19.2268 49.5286 19.4328 49.7796 19.5938 50.0661C19.7571 50.3525 19.8684 50.6638 19.9276 51ZM21.4874 56V48.7273H22.1515V52.0618H26.2779V48.7273H26.9419V56H26.2779V52.6584H22.1515V56H21.4874ZM34.5343 48.7273V56H33.888L29.5911 49.9098H29.5343V56H28.8702V48.7273H29.513L33.824 54.8246H33.8809V48.7273H34.5343ZM42.4302 52.3636C42.4302 53.1212 42.2953 53.7805 42.0254 54.3416C41.7555 54.9003 41.3838 55.3336 40.9103 55.6413C40.4392 55.9467 39.8971 56.0994 39.2839 56.0994C38.6708 56.0994 38.1274 55.9467 37.6539 55.6413C37.1828 55.3336 36.8123 54.9003 36.5424 54.3416C36.2749 53.7805 36.1412 53.1212 36.1412 52.3636C36.1412 51.6061 36.2749 50.9479 36.5424 50.3892C36.8123 49.8281 37.184 49.3949 37.6575 49.0895C38.131 48.7817 38.6731 48.6278 39.2839 48.6278C39.8971 48.6278 40.4392 48.7817 40.9103 49.0895C41.3838 49.3949 41.7555 49.8281 42.0254 50.3892C42.2953 50.9479 42.4302 51.6061 42.4302 52.3636ZM41.7839 52.3636C41.7839 51.7126 41.675 51.1551 41.4572 50.6911C41.2394 50.2247 40.9423 49.8684 40.5659 49.6222C40.1895 49.3759 39.7621 49.2528 39.2839 49.2528C38.8081 49.2528 38.3819 49.3759 38.0055 49.6222C37.6291 49.8684 37.3308 50.2235 37.1106 50.6875C36.8928 51.1515 36.7839 51.7102 36.7839 52.3636C36.7839 53.0147 36.8928 53.5722 37.1106 54.0362C37.3284 54.5002 37.6255 54.8565 38.002 55.1051C38.3784 55.3513 38.8057 55.4744 39.2839 55.4744C39.7621 55.4744 40.1895 55.3513 40.5659 55.1051C40.9447 54.8589 41.243 54.5038 41.4608 54.0398C41.6786 53.5734 41.7863 53.0147 41.7839 52.3636ZM44.0362 56V48.7273H44.7003V55.4034H48.1662V56H44.0362ZM55.3404 52.3636C55.3404 53.1212 55.2054 53.7805 54.9355 54.3416C54.6657 54.9003 54.294 55.3336 53.8205 55.6413C53.3494 55.9467 52.8072 56.0994 52.1941 56.0994C51.5809 56.0994 51.0376 55.9467 50.5641 55.6413C50.093 55.3336 49.7225 54.9003 49.4526 54.3416C49.1851 53.7805 49.0513 53.1212 49.0513 52.3636C49.0513 51.6061 49.1851 50.9479 49.4526 50.3892C49.7225 49.8281 50.0942 49.3949 50.5676 49.0895C51.0411 48.7817 51.5833 48.6278 52.1941 48.6278C52.8072 48.6278 53.3494 48.7817 53.8205 49.0895C54.294 49.3949 54.6657 49.8281 54.9355 50.3892C55.2054 50.9479 55.3404 51.6061 55.3404 52.3636ZM54.6941 52.3636C54.6941 51.7126 54.5852 51.1551 54.3674 50.6911C54.1496 50.2247 53.8525 49.8684 53.476 49.6222C53.0996 49.3759 52.6723 49.2528 52.1941 49.2528C51.7182 49.2528 51.2921 49.3759 50.9157 49.6222C50.5392 49.8684 50.2409 50.2235 50.0208 50.6875C49.803 51.1515 49.6941 51.7102 49.6941 52.3636C49.6941 53.0147 49.803 53.5722 50.0208 54.0362C50.2386 54.5002 50.5357 54.8565 50.9121 55.1051C51.2885 55.3513 51.7158 55.4744 52.1941 55.4744C52.6723 55.4744 53.0996 55.3513 53.476 55.1051C53.8548 54.8589 54.1531 54.5038 54.3709 54.0398C54.5887 53.5734 54.6964 53.0147 54.6941 52.3636ZM61.9783 51C61.9121 50.7585 61.815 50.5324 61.6871 50.3217C61.5593 50.1087 61.4007 49.9228 61.2113 49.7642C61.0243 49.6032 60.8076 49.4777 60.5614 49.3878C60.3176 49.2978 60.0453 49.2528 59.7447 49.2528C59.2712 49.2528 58.8474 49.3759 58.4734 49.6222C58.0993 49.8684 57.8034 50.2235 57.5856 50.6875C57.3701 51.1515 57.2624 51.7102 57.2624 52.3636C57.2624 53.0147 57.3713 53.5722 57.5891 54.0362C57.8069 54.5002 58.1052 54.8565 58.484 55.1051C58.8652 55.3513 59.3008 55.4744 59.7908 55.4744C60.2383 55.4744 60.6336 55.375 60.9769 55.1761C61.3202 54.9773 61.5877 54.6932 61.7795 54.3239C61.9736 53.9545 62.0683 53.5154 62.0636 53.0064L62.2766 53.0739H59.9471V52.4773H62.7099V53.0739C62.7099 53.6941 62.5844 54.2304 62.3335 54.6825C62.0825 55.1347 61.738 55.4839 61.3001 55.7301C60.8621 55.9763 60.359 56.0994 59.7908 56.0994C59.1564 56.0994 58.6012 55.9467 58.1254 55.6413C57.6495 55.3336 57.279 54.9003 57.0138 54.3416C56.7511 53.7805 56.6197 53.1212 56.6197 52.3636C56.6197 51.7931 56.6954 51.2782 56.8469 50.8189C56.9985 50.3596 57.2127 49.9666 57.4897 49.6399C57.7691 49.3132 58.0993 49.0634 58.4805 48.8906C58.8616 48.7154 59.283 48.6278 59.7447 48.6278C60.1424 48.6278 60.5058 48.6906 60.8349 48.8161C61.1663 48.9415 61.4575 49.1143 61.7085 49.3345C61.9618 49.5523 62.1689 49.8045 62.3299 50.0909C62.4933 50.375 62.6033 50.678 62.6602 51H61.9783ZM63.4521 48.7273H64.2191L66.3746 52.179H66.4386L68.5941 48.7273H69.3612L66.7369 52.8501V56H66.0763V52.8501L63.4521 48.7273ZM75.2356 56.0994C74.7882 56.0994 74.3975 56.013 74.0637 55.8402C73.7299 55.665 73.4707 55.4271 73.286 55.1264C73.1014 54.8258 73.0091 54.486 73.0091 54.1072C73.0091 53.8326 73.0647 53.5852 73.176 53.3651C73.2896 53.1425 73.4529 52.9318 73.666 52.733C73.8791 52.5317 74.1371 52.3234 74.4402 52.108L75.4949 51.3232C75.7458 51.1432 75.9364 50.9669 76.0666 50.794C76.1992 50.6188 76.2654 50.4046 76.2654 50.1513C76.2654 49.9074 76.1731 49.6896 75.9885 49.4979C75.8062 49.3037 75.5694 49.2067 75.2782 49.2067C75.0746 49.2067 74.8923 49.2576 74.7314 49.3594C74.5727 49.4612 74.4461 49.5937 74.3514 49.7571C74.2591 49.9181 74.2129 50.0874 74.2129 50.2649C74.2129 50.4306 74.2555 50.5975 74.3407 50.7656C74.426 50.9313 74.5408 51.1065 74.6852 51.2912C74.8296 51.4735 74.9906 51.6747 75.1681 51.8949L78.492 56H77.725L74.8272 52.4453C74.5834 52.147 74.3668 51.8807 74.1774 51.6463C73.988 51.4096 73.8388 51.1823 73.7299 50.9645C73.621 50.7443 73.5666 50.5088 73.5666 50.2578C73.5666 49.9477 73.6388 49.6719 73.7832 49.4304C73.9276 49.1866 74.1265 48.9948 74.3798 48.8551C74.6355 48.7154 74.9279 48.6456 75.2569 48.6456C75.5931 48.6456 75.8843 48.7143 76.1305 48.8516C76.3791 48.9889 76.5708 49.1712 76.7058 49.3984C76.8431 49.6257 76.9118 49.8767 76.9118 50.1513C76.9118 50.4804 76.8265 50.7715 76.6561 51.0249C76.488 51.2782 76.243 51.5268 75.921 51.7706L74.6 52.7578C74.2377 53.0301 73.9892 53.2822 73.8542 53.5142C73.7193 53.7462 73.6518 53.9439 73.6518 54.1072C73.6518 54.3629 73.7181 54.5985 73.8507 54.8139C73.9833 55.0294 74.1667 55.2022 74.4011 55.3324C74.6378 55.4626 74.9089 55.5289 75.2143 55.5312C75.5173 55.5289 75.8026 55.4685 76.0701 55.3501C76.3377 55.2294 76.5768 55.0578 76.7875 54.8352C77.0005 54.6127 77.171 54.3464 77.2988 54.0362C77.429 53.7261 77.5048 53.3804 77.5261 52.9993L78.1404 53.0064C78.131 53.397 78.0777 53.7285 77.9806 54.0007C77.8859 54.2706 77.777 54.4931 77.6539 54.6683C77.5308 54.8435 77.4231 54.9844 77.3308 55.0909C77.3047 55.1264 77.2787 55.1619 77.2527 55.1974C77.2266 55.233 77.1994 55.2685 77.171 55.304C76.9342 55.5644 76.6395 55.7621 76.2868 55.897C75.9364 56.032 75.586 56.0994 75.2356 56.0994ZM82.4444 56V48.7273H83.1085V55.4034H86.5744V56H82.4444ZM88.7335 48.7273V56H88.0694V48.7273H88.7335ZM90.6671 56V48.7273H94.8752V49.3239H91.3311V52.0618H94.5449V52.6584H91.3311V56H90.6671ZM96.5265 56V48.7273H100.745V49.3239H97.1905V52.0618H100.521V52.6584H97.1905V55.4034H100.816V56H96.5265Z" fill="#FCFCFC"/>
<mask id="mask0_40_136" style="mask-type:luminance" maskUnits="userSpaceOnUse" x="1" y="0" width="116" height="42">
<path d="M117 0H1V41.8H117V0Z" fill="white"/>
</mask>
<g mask="url(#mask0_40_136)">
<path d="M6.26118 3.53346C6.86441 3.13351 7.5715 2.93243 8.38243 2.93243C8.831 2.93243 9.24862 2.99651 9.63531 3.12468C10.0198 3.25283 10.3623 3.43623 10.6584 3.67709C10.9545 3.91794 11.1975 4.2074 11.3854 4.54548C11.5732 4.88577 11.6991 5.27246 11.761 5.70555H15.1152C15.007 4.79738 14.7639 3.99086 14.3839 3.28599C14.0038 2.58111 13.511 1.9845 12.91 1.49837C12.3068 1.01004 11.6174 0.638821 10.8396 0.384711C10.0618 0.128392 9.21769 0.00244141 8.30953 0.00244141C6.9307 0.00244141 5.69108 0.318422 4.58847 0.948171C3.48586 1.57793 2.61304 2.49493 1.97004 3.69255C1.32261 4.89018 1 6.34635 1 8.05661C1 9.76688 1.31819 11.2142 1.95457 12.414C2.59095 13.6139 3.45713 14.5309 4.55753 15.1629C5.65795 15.7971 6.90639 16.113 8.3051 16.113C9.31049 16.113 10.212 15.9605 11.0119 15.6579C11.8118 15.3551 12.5012 14.9397 13.0801 14.4182C13.6591 13.8945 14.1209 13.3001 14.4656 12.635C14.8103 11.9677 15.0269 11.2761 15.113 10.5557L11.7588 10.5403C11.6814 10.9579 11.5444 11.3313 11.35 11.6583C11.1533 11.9854 10.9081 12.2616 10.612 12.4892C10.3159 12.7168 9.9778 12.8891 9.59774 13.0062C9.21769 13.1233 8.80448 13.183 8.36034 13.183C7.56928 13.183 6.87104 12.9886 6.27002 12.6019C5.66678 12.213 5.19833 11.6407 4.86467 10.8783C4.53102 10.1182 4.36309 9.17912 4.36309 8.06104C4.36309 6.94295 4.52881 6.04804 4.86026 5.28572C5.1917 4.52338 5.66015 3.94003 6.26118 3.54009V3.53346Z" fill="#FCFCFC"/>
<path d="M23.4235 6.98694H23.2711L19.7534 0.342529H16.1008L21.7287 10.3169V15.7704H24.9659V10.3169L30.5939 0.342529H26.9414L23.4235 6.98694Z" fill="#FCFCFC"/>
<path d="M41.8784 15.2113C42.6674 14.84 43.264 14.334 43.6683 13.6932C44.0727 13.0524 44.2737 12.3233 44.2737 11.5057C44.2737 10.7478 44.1125 10.0937 43.792 9.5435C43.4695 8.99331 43.0517 8.56463 42.537 8.25971C42.0221 7.95257 41.4719 7.78685 40.8841 7.76254V7.61006C41.4212 7.49074 41.9006 7.28525 42.3182 6.998C42.738 6.70852 43.0696 6.33731 43.3104 5.88213C43.5512 5.42693 43.6705 4.89882 43.6705 4.29559C43.6705 3.52222 43.4804 2.83944 43.0981 2.24282C42.7181 1.64843 42.148 1.1822 41.3879 0.84633C40.63 0.510463 39.6843 0.342529 38.5485 0.342529H32.3726V15.7681H38.9639C40.1175 15.7681 41.0896 15.5825 41.8784 15.2113ZM35.634 13.1033V2.97864H38.111C38.8358 2.97864 39.3948 3.14879 39.7882 3.49128C40.1815 3.83156 40.3803 4.28233 40.3803 4.83917C40.3803 5.24574 40.2787 5.59486 40.0754 5.88654C39.8721 6.17822 39.5937 6.40139 39.2468 6.56048C38.9706 6.68422 38.6613 6.76156 38.3231 6.78586V9.00435H38.3673C38.891 9.00435 39.3418 9.09717 39.7196 9.28277C40.0997 9.46838 40.3914 9.7247 40.5969 10.0517C40.8046 10.3788 40.9063 10.7544 40.9063 11.1809C40.9063 11.7642 40.6985 12.2304 40.2809 12.5796C39.8656 12.9287 39.2026 13.1033 38.2922 13.1033H35.634Z" fill="#FCFCFC"/>
<path d="M44.2912 34.232C43.7765 33.9249 43.2263 33.759 42.6385 33.7348V33.5823C43.1754 33.463 43.655 33.2575 44.0726 32.9702C44.4924 32.6807 44.8238 32.3095 45.0646 31.8544C45.3055 31.3992 45.4249 30.8711 45.4249 30.2678C45.4249 29.4944 45.2348 28.8117 44.8525 28.2151C44.4725 27.6208 43.9024 27.1545 43.1423 26.8186C42.3844 26.4828 41.4387 26.3148 40.3029 26.3148H34.127V41.7404H40.7183C41.8717 41.7404 42.844 41.5547 43.6328 41.1835C44.4216 40.8123 45.0182 40.3064 45.4227 39.6654C45.8269 39.0247 46.0281 38.2954 46.0281 37.4779C46.0281 36.7201 45.8668 36.066 45.5464 35.5158C45.2237 34.9656 44.8061 34.5369 44.2912 34.232ZM42.0353 38.5518C41.6198 38.9009 40.9569 39.0756 40.0465 39.0756H37.3884V28.9509H39.8654C40.5902 28.9509 41.1492 29.121 41.5426 29.4636C41.9358 29.8038 42.1347 30.2546 42.1347 30.8114C42.1347 31.218 42.0331 31.5671 41.8298 31.8589C41.6265 32.1504 41.348 32.3736 41.0012 32.5327C40.7249 32.6565 40.4157 32.7339 40.0775 32.7581V34.9767H40.1217C40.6454 34.9767 41.0961 35.0695 41.474 35.2551C41.8541 35.4407 42.1458 35.6969 42.3513 36.0239C42.5589 36.351 42.6605 36.7267 42.6605 37.1531C42.6605 37.7364 42.4529 38.2026 42.0353 38.5518Z" fill="#FCFCFC"/>
<path d="M56.9837 15.1668C58.095 14.5371 58.9723 13.6223 59.6176 12.4225C60.2627 11.2227 60.5854 9.76872 60.5854 8.05844C60.5854 6.34817 60.2627 4.89423 59.6176 3.69439C58.9723 2.49455 58.0928 1.57975 56.9837 0.950002C55.8722 0.320252 54.626 0.00427246 53.2427 0.00427246C51.8595 0.00427246 50.5977 0.320252 49.4907 0.950002C48.3837 1.57975 47.5064 2.49676 46.8634 3.69439C46.2204 4.89423 45.8978 6.34817 45.8978 8.05844C45.8978 9.76872 46.2204 11.216 46.8634 12.4159C47.5064 13.6157 48.3814 14.5327 49.4907 15.1648C50.5977 15.7988 51.8484 16.1148 53.2427 16.1148C54.637 16.1148 55.8722 15.7988 56.9837 15.1691V15.1668ZM49.7537 10.8581C49.4244 10.0979 49.2587 9.16327 49.2587 8.05623C49.2587 6.9492 49.4244 6.01452 49.7537 5.2544C50.083 4.49428 50.547 3.91756 51.1436 3.52425C51.7402 3.13093 52.4405 2.93427 53.2427 2.93427C54.0448 2.93427 54.743 3.13093 55.3419 3.52425C55.9385 3.91756 56.4025 4.49428 56.7318 5.2544C57.0609 6.01452 57.2266 6.9492 57.2266 8.05623C57.2266 9.16327 57.0609 10.0979 56.7318 10.8581C56.4025 11.6182 55.9385 12.1949 55.3419 12.5882C54.7453 12.9815 54.0448 13.1782 53.2427 13.1782C52.4405 13.1782 51.7423 12.9815 51.1436 12.5882C50.5447 12.1949 50.083 11.6182 49.7537 10.8581Z" fill="#FCFCFC"/>
<path d="M75.7855 13.0237C76.3667 12.036 76.6585 10.8561 76.6585 9.47947V7.50625H70.1024V9.99874H73.4654C73.4522 10.6241 73.313 11.1699 73.0435 11.6361C72.7606 12.1266 72.3518 12.5045 71.8192 12.7719C71.2867 13.0392 70.6459 13.174 69.8947 13.174C69.0683 13.174 68.3523 12.9729 67.7447 12.573C67.137 12.173 66.6685 11.5897 66.3372 10.8251C66.0056 10.0606 65.8399 9.13255 65.8399 8.04098C65.8399 6.94942 66.0079 6.02579 66.3437 5.26788C66.6796 4.50997 67.1502 3.93325 67.7557 3.53551C68.359 3.13778 69.0616 2.9389 69.8637 2.9389C70.2924 2.9389 70.6835 2.99195 71.037 3.10021C71.3906 3.20627 71.7065 3.36094 71.9849 3.56202C72.2633 3.76311 72.4976 4.00837 72.692 4.29564C72.8866 4.58288 73.0367 4.91433 73.1428 5.28556H76.5082C76.4021 4.50997 76.159 3.80067 75.7812 3.15545C75.4033 2.51024 74.9173 1.95341 74.325 1.48496C73.7306 1.01651 73.0523 0.65192 72.2877 0.3956C71.5232 0.137071 70.6968 0.00891113 69.8085 0.00891113C68.7721 0.00891113 67.8131 0.190102 66.9249 0.552485C66.0389 0.914867 65.261 1.44297 64.5915 2.13681C63.9242 2.83064 63.405 3.67471 63.0359 4.67348C62.6669 5.67003 62.4813 6.80359 62.4813 8.07414C62.4813 9.72695 62.7907 11.1522 63.4116 12.3542C64.0303 13.5541 64.8965 14.4799 66.0079 15.1318C67.1194 15.7814 68.4097 16.1062 69.8791 16.1062C71.1939 16.1062 72.3629 15.8389 73.3814 15.3063C74.4001 14.7738 75.2023 14.0137 75.7835 13.026L75.7855 13.0237Z" fill="#FCFCFC"/>
<path d="M4.93978 26.3124H1.67834V41.7401H11.5533V39.051H4.93978V26.3124Z" fill="#FCFCFC"/>
<path d="M20.7434 26.3124L15.4181 41.7401H18.9137L20.0583 38.2224H25.6288L26.7713 41.7401H30.2669L24.9482 26.3124H20.7456H20.7434ZM20.8848 35.6768L22.7851 29.8389H22.9066L24.8025 35.6768H20.8869H20.8848Z" fill="#FCFCFC"/>
<path d="M60.5723 34.318C60.1679 33.9579 59.6906 33.6552 59.1403 33.4099C58.588 33.1646 57.9826 32.9658 57.3242 32.8199L55.9651 32.4951C55.6359 32.4222 55.3243 32.3316 55.0348 32.2255C54.7454 32.1194 54.4891 31.9935 54.2659 31.8498C54.045 31.704 53.8703 31.5317 53.7445 31.3283C53.6184 31.1273 53.5611 30.8908 53.5699 30.6191C53.5699 30.2942 53.6648 30.0026 53.8549 29.7485C54.045 29.4922 54.3189 29.2911 54.6791 29.1475C55.0393 29.0016 55.4791 28.9287 56.0006 28.9287C56.7694 28.9287 57.3771 29.0944 57.8257 29.4237C58.2743 29.753 58.5283 30.217 58.5858 30.8113H61.6506C61.6352 29.9098 61.3943 29.1188 60.9258 28.4337C60.4573 27.7488 59.8055 27.2162 58.9658 26.8317C58.1261 26.4472 57.1451 26.255 56.0226 26.255C54.9001 26.255 53.9344 26.4472 53.0682 26.8317C52.202 27.2162 51.5216 27.7509 51.0266 28.4337C50.5316 29.1188 50.2863 29.9187 50.2908 30.8335C50.2863 31.9514 50.6532 32.8398 51.3912 33.5004C52.1291 34.1611 53.1368 34.645 54.4117 34.9544L56.0579 35.3677C56.6103 35.5001 57.0766 35.6483 57.4566 35.8118C57.8389 35.9752 58.1284 36.1719 58.3273 36.4018C58.5261 36.6315 58.6256 36.9188 58.6256 37.2591C58.6256 37.6236 58.5151 37.9463 58.2941 38.227C58.0731 38.5076 57.7617 38.7263 57.3595 38.8831C56.9573 39.04 56.4866 39.1196 55.9453 39.1196C55.4039 39.1196 54.9001 39.0357 54.4649 38.8655C54.0295 38.6953 53.6826 38.4413 53.424 38.1054C53.1655 37.7673 53.0197 37.3452 52.9843 36.8393H49.8909C49.9151 37.9264 50.1803 38.839 50.684 39.5748C51.1878 40.3106 51.8928 40.8652 52.7966 41.2409C53.7003 41.6143 54.763 41.8021 55.9829 41.8021C57.2026 41.8021 58.2653 41.6165 59.1403 41.2453C60.0133 40.874 60.685 40.3504 61.149 39.6719C61.6153 38.9958 61.8495 38.1937 61.8538 37.268C61.8495 36.6381 61.7345 36.0791 61.5114 35.5908C61.2882 35.1024 60.9745 34.6803 60.5701 34.3202L60.5723 34.318Z" fill="#FCFCFC"/>
<path d="M85.8903 0.227539H81.9131V41.7689H85.8903V0.227539Z" fill="url(#paint0_linear_40_136)"/>
<path d="M70.8227 20.9982H66.8453V41.7689H70.8227V20.9982Z" fill="url(#paint1_linear_40_136)"/>
<path d="M78.3575 20.9982H74.3801V41.7689H78.3575V20.9982Z" fill="url(#paint2_linear_40_136)"/>
<path d="M93.4254 0.227539H89.448V41.7689H93.4254V0.227539Z" fill="url(#paint3_linear_40_136)"/>
<path d="M100.96 0.227539H96.9828V41.7689H100.96V0.227539Z" fill="url(#paint4_linear_40_136)"/>
<path d="M102 0.696388H103.491V4H104.509V0.696388H106V0H102V0.696388Z" fill="#FCFCFC"/>
<path d="M110.038 0L109.022 2.68793H108.978L107.961 0H107V4H107.757V1.38627H107.787L108.742 3.98048H109.258L110.213 1.39668H110.243V4H111V0H110.038Z" fill="#FCFCFC"/>
</g>
<defs>
<linearGradient id="paint0_linear_40_136" x1="100.96" y1="20.9982" x2="66.8453" y2="20.9982" gradientUnits="userSpaceOnUse">
<stop stop-color="#FF9A4E"/>
<stop offset="0.514529" stop-color="#EB648B"/>
<stop offset="1" stop-color="#B471E0"/>
</linearGradient>
<linearGradient id="paint1_linear_40_136" x1="100.96" y1="20.9982" x2="66.8453" y2="20.9982" gradientUnits="userSpaceOnUse">
<stop stop-color="#FF9A4E"/>
<stop offset="0.514529" stop-color="#EB648B"/>
<stop offset="1" stop-color="#B471E0"/>
</linearGradient>
<linearGradient id="paint2_linear_40_136" x1="100.96" y1="20.9982" x2="66.8452" y2="20.9982" gradientUnits="userSpaceOnUse">
<stop stop-color="#FF9A4E"/>
<stop offset="0.514529" stop-color="#EB648B"/>
<stop offset="1" stop-color="#B471E0"/>
</linearGradient>
<linearGradient id="paint3_linear_40_136" x1="100.96" y1="20.9982" x2="66.8455" y2="20.9982" gradientUnits="userSpaceOnUse">
<stop stop-color="#FF9A4E"/>
<stop offset="0.514529" stop-color="#EB648B"/>
<stop offset="1" stop-color="#B471E0"/>
</linearGradient>
<linearGradient id="paint4_linear_40_136" x1="100.96" y1="20.9982" x2="66.8454" y2="20.9982" gradientUnits="userSpaceOnUse">
<stop stop-color="#FF9A4E"/>
<stop offset="0.514529" stop-color="#EB648B"/>
<stop offset="1" stop-color="#B471E0"/>
</linearGradient>
</defs>
</svg>
