<svg width="16" height="16" viewBox="0 0 16 16" fill="none" xmlns="http://www.w3.org/2000/svg">
<g clip-path="url(#clip0_17_129)">
<rect width="16" height="16" rx="2" fill="#0A0A0A"/>
<path d="M8 14C11.3137 14 14 11.3137 14 8C14 4.68629 11.3137 2 8 2C4.68629 2 2 4.68629 2 8C2 11.3137 4.68629 14 8 14Z" stroke="#FCFCFC" stroke-width="0.5" stroke-linecap="round" stroke-linejoin="round"/>
<path d="M10.5 8C10.5 12 8 14 8 14C8 14 5.5 12 5.5 8C5.5 4 8 2 8 2C8 2 10.5 4 10.5 8Z" stroke="#FCFCFC" stroke-width="0.5" stroke-linecap="round" stroke-linejoin="round"/>
<path d="M2.34106 6H13.6586" stroke="#FCFCFC" stroke-width="0.5" stroke-linecap="round" stroke-linejoin="round"/>
<path d="M2.34106 10H13.6586" stroke="#FCFCFC" stroke-width="0.5" stroke-linecap="round" stroke-linejoin="round"/>
</g>
<defs>
<clipPath id="clip0_17_129">
<rect width="16" height="16" rx="2" fill="white"/>
</clipPath>
</defs>
</svg>
